# xmcd
#
# Track frame offsets:
#	150
#	31371
#	59545
#	77305
#	111884
#	132233
#	151897
#	172189
#	185810
#	216497
#	235227
#	250004
#	277066
#
# Disc length: 4008 seconds
#
# Revision: 0
# Processed by: cddbd v1.5.2PL0 Copyright (c) Steve Scherf et al.
# Submitted via: EZCDAudioConverter 2.1.7.1
#
DISCID=bc0fa60d
DTITLE=Psychemagik - Ritual Chants 2/3
DYEAR=1900
DGENRE=
TTITLE0=El Sueño De Hyparco - Rhodas
TTITLE1=Tony Wilson - Hangin' Out In Space
TTITLE2=Zru Vogue - Do The Zru
TTITLE3=Golden Hands - Take Me Back
TTITLE4=Minako Yoshida - Black Moon
TTITLE5=Adrian Gurvitz - New World
TTITLE6=Hitomi Tohyama - Wanna Kiss
TTITLE7=Chagrin D'Amour - Ciao Katmandou
TTITLE8=Amini - Habibi
TTITLE9=Electric Machine - Fancy Good
TTITLE10=Jean Guy Ruff - Cover Girl
TTITLE11=J.M. Black - Lipstick (Shout!)
TTITLE12=Danny Boy - Discomix
EXTD=
EXTT0=
EXTT1=
EXTT2=
EXTT3=
EXTT4=
EXTT5=
EXTT6=
EXTT7=
EXTT8=
EXTT9=
EXTT10=
EXTT11=
EXTT12=
PLAYORDER=
